<svg id="Layer_1" data-name="Layer 1" xmlns="http://www.w3.org/2000/svg" viewBox="0 0 73.23582 98.75"><defs><style>.cls-1{fill:#39424e;}</style></defs><title>Java</title><g id="java"><path class="cls-1" d="M49.5111,18.92259c-4.563,3.20919-9.73441,6.84655-12.50539,12.86432-4.81291,10.499,9.8484,21.95107,10.475,22.43344a.80945.80945,0,0,0,1.212-1.01451c-.053-.10222-5.31573-10.3244-5.12015-17.65776.06924-2.55419,3.64372-5.4517,7.42786-8.51932,3.4659-2.80975,7.39469-5.99425,9.69333-9.71956,5.04629-8.20012-.56241-16.2633-.6197-16.34392a.8094.8094,0,0,0-1.45116.6384A17.22453,17.22453,0,0,1,56.69,12.4828C55.43977,14.7529,52.69251,16.68508,49.5111,18.92259Z" transform="translate(-13.38209 -0.625)"/><path class="cls-1" d="M68.73516,22.53854a.80936.80936,0,0,0-.77438-1.40314c-.77515.29471-18.98162,7.31272-18.98162,15.7923,0,5.84535,2.49691,8.93322,4.32013,11.18827a8.51541,8.51541,0,0,1,1.536,2.30037c.57283,1.87915-.78422,5.27561-1.35492,6.42589A.80942.80942,0,0,0,54.66751,57.867c.313-.21756,7.65063-5.40541,6.33466-11.65579a15.41576,15.41576,0,0,0-2.68786-5.64341c-1.59581-2.37328-2.74842-4.08752-.99984-7.2537C59.36316,29.621,68.64123,22.60874,68.73516,22.53854Z" transform="translate(-13.38209 -0.625)"/><path class="cls-1" d="M21.343,58.14625a2.87287,2.87287,0,0,0,.42567,2.68149c1.97365,2.74012,8.96466,4.24876,19.686,4.24876H41.456c1.45271,0,2.98642-.02855,4.55736-.08486,17.14144-.61352,23.49925-5.95374,23.76155-6.18075a.80908.80908,0,0,0-.74275-1.39234C62.99511,59.06682,51.72236,59.652,43.90336,59.652c-8.74922,0-13.20493-.6303-14.29582-1.0957.55971-.76859,4.01211-2.14107,8.29019-2.98256a.80937.80937,0,0,0-.15623-1.60353C35.2338,53.9702,22.65762,54.17155,21.343,58.14625Z" transform="translate(-13.38209 -0.625)"/><path class="cls-1" d="M78.70179,52.64594a16.91173,16.91173,0,0,0-7.02939,1.84713.80961.80961,0,0,0,.3813,1.5233c.075,0,7.54165.06114,8.21786,4.32726.59906,3.68037-7.06468,9.64357-10.06827,11.63091a.80938.80938,0,0,0,.61527,1.46659c.71286-.15256,17.43673-3.83794,15.66848-13.57506C85.40831,53.89865,81.65773,52.64594,78.70179,52.64594Z" transform="translate(-13.38209 -0.625)"/><path class="cls-1" d="M67.23269,70.783a.8102.8102,0,0,0-.33116-.81141l-4.01-2.80878a.812.812,0,0,0-.67215-.1192A78.86966,78.86966,0,0,1,51.896,68.83267a71.65008,71.65008,0,0,1-7.8271.4141c-6.08663,0-10.06634-.71517-10.64592-1.23978-.07676-.14736-.05246-.21428-.03877-.2515a2.04153,2.04153,0,0,1,1.0334-.77843.80949.80949,0,0,0-.4708-1.54606c-4.02252.97072-5.98943,2.32815-5.84631,4.03448.2542,3.02538,7.26161,4.57819,13.18565,4.98861.85191.05825,1.77326.08775,2.73781.08775h.00154c9.85071,0,22.47915-3.09076,22.60529-3.1222A.80715.80715,0,0,0,67.23269,70.783Z" transform="translate(-13.38209 -0.625)"/><path class="cls-1" d="M37.00108,77.27581a.80937.80937,0,0,0-.46366-1.487c-.53907.01427-5.27484.228-5.60639,3.24313a3.13539,3.13539,0,0,0,.76744,2.44677c1.70035,2.01512,6.29031,3.21285,14.02965,3.66147.91556.055,1.84559.08255,2.76462.08255a42.18314,42.18314,0,0,0,16.74354-3.21189.80968.80968,0,0,0,.076-1.42281l-5.06769-3.09366a.81477.81477,0,0,0-.58691-.10164c-.032.00675-3.24969.67408-8.10561,1.33332a26.12612,26.12612,0,0,1-3.41961.18843c-4.85071,0-10.2461-.79251-11.28085-1.31152A.32454.32454,0,0,1,37.00108,77.27581Z" transform="translate(-13.38209 -0.625)"/><path class="cls-1" d="M43.907,94.52448c22.53778-.01909,34.6341-4.02715,36.96437-6.54933a2.79048,2.79048,0,0,0,.844-2.2888A3.53465,3.53465,0,0,0,80.1651,83.407a.81721.81721,0,0,0-1.05617.14369.8.8,0,0,0-.00521,1.05327c.14215.18284.22431.48893-.19133.90495-.93157.87-10.32729,3.511-25.97128,4.3045-2.143.11129-4.39072.168-6.68029.16837-14.00689,0-24.25781-1.91868-25.60347-3.03656C21.176,86.2,24.802,85.00936,28.658,84.33586a.8096.8096,0,0,0-.24745-1.59987c-.10878.01485-.47793.03684-.90534.06307-6.36244.38844-13.71489,1.25424-14.09851,4.53248a3.33615,3.33615,0,0,0,.88258,2.695c1.71829,1.93064,6.65715,4.49757,29.61693,4.49757Z" transform="translate(-13.38209 -0.625)"/><path class="cls-1" d="M85.29818,88.68588a.80853.80853,0,0,0-.93273.18361c-.033.03568-3.42154,3.57892-13.60977,5.65962-3.90044.78152-11.22184,1.17786-21.7609,1.17786-10.55874,0-20.606-.41544-20.70609-.41969a.80949.80949,0,0,0-.22161,1.5962A120.51319,120.51319,0,0,0,53.09774,99.375a116.67238,116.67238,0,0,0,19.97144-1.66737c11.83478-2.07471,12.66335-7.943,12.69286-8.19182A.80953.80953,0,0,0,85.29818,88.68588Z" transform="translate(-13.38209 -0.625)"/></g></svg>
