<svg id="Layer_1" data-name="Layer 1" xmlns="http://www.w3.org/2000/svg" viewBox="0 0 98.26787 98.75"><defs><style>.cls-1{fill:#39424e;}</style></defs><title>Python</title><g id="python"><path class="cls-1" d="M26.31275,23.00614c0-4.2737-.1887-8.241.05344-12.18186A8.05611,8.05611,0,0,1,32.585,3.16151,69.793,69.793,0,0,1,44.40155.916a58.78917,58.78917,0,0,1,18.04582.96134C69.51064,3.41018,73.37394,8.28153,73.379,15.45744q.0069,9.85116-.00149,19.70232c-.01457,8.39636-4.82013,13.22307-13.15621,13.22778-7.15266.004-14.30535-.01385-21.458.00485-9.10975.02381-15.54653,6.49492-15.577,15.63731-.01059,3.17492-.00169,6.34991-.00169,9.94764-3.82582-.17841-7.54676.00151-11.13318-.6089-4.45312-.75794-6.984-4.13279-8.415-8.1603A42.8762,42.8762,0,0,1,1.42961,43.344c.29533-1.727.63845-3.44938,1.04766-5.15273,1.89359-7.88219,7.2632-12.19521,15.36543-12.23785,9.75336-.05133,19.50719-.013,29.26081-.01355.77224,0,1.54447,0,2.47235,0V23.00614Zm10.217-6.1229a4.376,4.376,0,0,0,4.34586-4.51379,4.3979,4.3979,0,1,0-8.793.11663A4.36,4.36,0,0,0,36.52971,16.88324Z" transform="translate(-0.86607 -0.625)"/><path class="cls-1" d="M73.68725,76.99386c0,4.2737.1887,8.241-.05344,12.18186a8.05611,8.05611,0,0,1-6.2188,7.66276A69.793,69.793,0,0,1,55.59845,99.084a58.78917,58.78917,0,0,1-18.04582-.96134c-7.06328-1.53287-10.92657-6.40423-10.9316-13.58013q-.0069-9.85116.00149-19.70232c.01457-8.39636,4.82013-13.22307,13.15621-13.22778,7.15266-.004,14.30535.01385,21.458-.00485,9.10975-.02381,15.54653-6.49492,15.577-15.63731.01059-3.17492.00169-6.34991.00169-9.94764,3.82582.17841,7.54676-.00151,11.13318.6089,4.45312.75794,6.984,4.13279,8.415,8.1603A42.8762,42.8762,0,0,1,98.57039,56.656c-.29533,1.727-.63845,3.44938-1.04766,5.15273-1.89359,7.88219-7.2632,12.19521-15.36543,12.23785-9.75336.05133-19.50719.013-29.26081.01355-.77224,0-1.54447,0-2.47235,0v2.93374Zm-10.217,6.1229a4.376,4.376,0,0,0-4.34586,4.51379,4.3979,4.3979,0,1,0,8.793-.11663A4.36,4.36,0,0,0,63.47029,83.11676Z" transform="translate(-0.86607 -0.625)"/></g></svg>
